<?xml version="1.0" encoding="UTF-8"?>
<!DOCTYPE svg PUBLIC "-//W3C//DTD SVG 1.1//EN" "http://www.w3.org/Graphics/SVG/1.1/DTD/svg11.dtd">
<!-- Creator: CorelDRAW -->
<svg xmlns="http://www.w3.org/2000/svg" xml:space="preserve" width="180.622mm" height="180.622mm" version="1.1" style="shape-rendering:geometricPrecision; text-rendering:geometricPrecision; image-rendering:optimizeQuality; fill-rule:evenodd; clip-rule:evenodd"
viewBox="0 0 18062 18062"
 xmlns:xlink="http://www.w3.org/1999/xlink">
 <defs>
  <style type="text/css">
   <![CDATA[
    .fil0 {fill:black}
   ]]>
  </style>
 </defs>
 <g id="Layer_x0020_1">
  <metadata id="CorelCorpID_0Corel-Layer"/>
  <path class="fil0" d="M14712 10799l-1496 0 -4415 -7641 1733 0 4391 7610c-64,20 -134,31 -213,31zm556 2966l-8252 0 -3 0 0 0 -6 0c-143,-3 -257,-119 -257,-263l0 -6 -1787 -7919 3017 5222 -1316 0 551 2440 8053 0c146,0 262,117 262,263 0,146 -116,263 -262,263zm-4144 -10607l1733 0 3219 5577 -575 1377c-34,80 -84,203 -163,323l-4214 -7277zm2323 0l1733 0 1872 3235 -729 1748 -2876 -4983zm2323 0l1484 0c459,0 938,403 775,891l-732 1756 -1527 -2647zm-3144 7641l-1733 0 -4415 -7641 1733 0 4415 7641zm-2323 0l-1733 0 -3986 -6898 -332 -1474c-30,-131 -147,-540 -483,-540l-3506 0c-146,0 -263,-117 -263,-263 0,-146 131,-249 263,-249l3492 0c482,0 862,366 993,935l192 848 948 0 4415 7641z"/>
  <path class="fil0" d="M7699 16687c-730,0 -1329,-599 -1329,-1330 0,-745 599,-1344 1329,-1344 746,0 1345,599 1345,1344 0,745 -599,1330 -1345,1330z"/>
  <path class="fil0" d="M14347 16687c-730,0 -1329,-599 -1329,-1330 0,-745 599,-1344 1329,-1344 731,0 1330,599 1330,1344 0,745 -599,1330 -1330,1330z"/>
 </g>
</svg>
