<?xml version="1.0" encoding="utf-8"?>
<!-- Generator: Adobe Illustrator 16.0.0, SVG Export Plug-In . SVG Version: 6.00 Build 0)  -->
<!DOCTYPE svg PUBLIC "-//W3C//DTD SVG 1.1//EN" "http://www.w3.org/Graphics/SVG/1.1/DTD/svg11.dtd">
<svg version="1.1" id="Layer_1" xmlns="http://www.w3.org/2000/svg" xmlns:xlink="http://www.w3.org/1999/xlink" x="0px" y="0px"
	 width="128px" height="128px" viewBox="0 0 128 128" enable-background="new 0 0 128 128" xml:space="preserve">
<path d="M83.566,10.442H44.434c-6.867,0-12.451,5.587-12.451,12.451v81.826c0,6.865,5.584,12.451,12.451,12.451h39.132
	c6.865,0,12.451-5.586,12.451-12.451V22.894C96.018,16.029,90.432,10.442,83.566,10.442z M64.895,17.558h3.557
	c0.982,0,1.779,0.797,1.779,1.779s-0.797,1.779-1.779,1.779h-3.557c-0.984,0-1.778-0.797-1.778-1.779S63.911,17.558,64.895,17.558z
	 M59.53,17.558h0.035c0.983,0,1.78,0.797,1.78,1.779s-0.797,1.779-1.78,1.779c-0.979,0-1.796-0.797-1.796-1.779
	S58.55,17.558,59.53,17.558z M69.338,110.057H58.665c-0.984,0-1.78-0.796-1.78-1.779c0-0.982,0.797-1.778,1.78-1.778h10.673
	c0.98,0,1.778,0.796,1.778,1.778C71.116,109.261,70.318,110.057,69.338,110.057z M92.46,99.384H35.538V28.231H92.46V99.384z"/>
</svg>
